<svg xmlns="http://www.w3.org/2000/svg" viewBox="0 0 400 100" width="400" height="100">
  <defs>
    <linearGradient id="metalGradientFull" x1="0%" y1="0%" x2="100%" y2="100%">
      <stop offset="0%" stop-color="#4ade80" />
      <stop offset="50%" stop-color="#22c55e" />
      <stop offset="100%" stop-color="#16a34a" />
    </linearGradient>
    <linearGradient id="shineGradientFull" x1="0%" y1="0%" x2="100%" y2="100%">
      <stop offset="0%" stop-color="#ffffff" stop-opacity="0.3" />
      <stop offset="50%" stop-color="#ffffff" stop-opacity="0" />
    </linearGradient>
  </defs>

  <!-- Icon background -->
  <rect x="10" y="20" width="60" height="60" rx="8" ry="8" fill="url(#metalGradientFull)" />
  <rect x="10" y="20" width="60" height="60" rx="8" ry="8" fill="url(#shineGradientFull)" />

  <!-- Stylized D with arrow cutout (scaled for 60x60 icon) -->
  <path
    d="M 25 31.25
       L 25 68.75
       L 36.25 68.75
       C 53.125 68.75 58.75 59.375 58.75 50
       C 58.75 40.625 53.125 31.25 36.25 31.25
       Z

       M 32.5 38.75
       L 36.25 38.75
       C 45.625 38.75 49.375 42.5 49.375 46.25
       L 41.875 50
       L 49.375 53.75
       C 49.375 57.5 45.625 61.25 36.25 61.25
       L 32.5 61.25
       Z"
    fill="#ffffff"
    fill-rule="evenodd"
  />

  <!-- "Dev" text in green -->
  <text x="85" y="55" font-family="system-ui, -apple-system, 'Segoe UI', sans-serif" font-size="36" font-weight="700" fill="#22c55e">Dev</text>

  <!-- "Desk" text in light gray -->
  <text x="168" y="55" font-family="system-ui, -apple-system, 'Segoe UI', sans-serif" font-size="36" font-weight="700" fill="#f3f4f6">Desk</text>

  <!-- Tagline -->
  <text x="85" y="78" font-family="system-ui, -apple-system, 'Segoe UI', sans-serif" font-size="12" fill="#9ca3af">Azure DevOps Powered Support Ticketing</text>
</svg>