<svg width="1200" height="630" viewBox="0 0 1200 630" xmlns="http://www.w3.org/2000/svg">
  <defs>
    <linearGradient id="greenGradient" x1="0%" y1="0%" x2="100%" y2="100%">
      <stop offset="0%" stop-color="#4ade80" />
      <stop offset="50%" stop-color="#22c55e" />
      <stop offset="100%" stop-color="#16a34a" />
    </linearGradient>
    <linearGradient id="shineGradient" x1="0%" y1="0%" x2="100%" y2="100%">
      <stop offset="0%" stop-color="#ffffff" stop-opacity="0.3" />
      <stop offset="50%" stop-color="#ffffff" stop-opacity="0" />
    </linearGradient>
    <linearGradient id="bgGradient" x1="0%" y1="0%" x2="100%" y2="100%">
      <stop offset="0%" style="stop-color:#0f1117;stop-opacity:1" />
      <stop offset="100%" style="stop-color:#1a1d26;stop-opacity:1" />
    </linearGradient>
    <filter id="shadow" x="-20%" y="-20%" width="140%" height="140%">
      <feDropShadow dx="0" dy="4" stdDeviation="8" flood-color="#000" flood-opacity="0.3"/>
    </filter>
  </defs>

  <!-- Background -->
  <rect width="1200" height="630" fill="url(#bgGradient)"/>

  <!-- Decorative gradient accent -->
  <ellipse cx="1100" cy="100" rx="300" ry="200" fill="#22c55e" opacity="0.05"/>
  <ellipse cx="100" cy="530" rx="250" ry="180" fill="#22c55e" opacity="0.03"/>

  <!-- Logo Section -->
  <g transform="translate(60, 40)">
    <!-- Logo Icon Background -->
    <rect x="0" y="0" width="50" height="50" rx="6" fill="url(#greenGradient)"/>
    <rect x="0" y="0" width="50" height="50" rx="6" fill="url(#shineGradient)"/>

    <!-- Stylized D with arrow cutout (scaled for 50x50) -->
    <path
      d="M 10.9375 9.375
         L 10.9375 20.3125
         L 17.1875 25
         L 10.9375 29.6875
         L 10.9375 40.625
         L 21.875 40.625
         C 37.5 40.625 42.1875 32.8125 42.1875 25
         C 42.1875 17.1875 37.5 9.375 21.875 9.375
         Z
         M 18.75 15.625
         L 21.875 15.625
         C 32.8125 15.625 35.9375 20.3125 35.9375 25
         C 35.9375 29.6875 32.8125 34.375 21.875 34.375
         L 18.75 34.375
         Z"
      fill="#ffffff"
      fill-rule="evenodd"
    />

    <!-- DevDesk Text -->
    <text x="70" y="38" font-family="Arial, sans-serif" font-size="36" font-weight="bold" fill="#22c55e">Dev</text>
    <text x="131" y="38" font-family="Arial, sans-serif" font-size="36" font-weight="bold" fill="#f3f4f6">Desk</text>
  </g>

  <!-- Main Content Area - Dashboard Mockup -->
  <g transform="translate(60, 120)" filter="url(#shadow)">
    <!-- Sidebar -->
    <rect x="0" y="0" width="200" height="450" rx="12" fill="#0a0c10"/>

    <!-- Sidebar Nav Items -->
    <rect x="12" y="20" width="176" height="36" rx="6" fill="#22c55e" opacity="0.15"/>
    <circle cx="32" cy="38" r="8" fill="#22c55e"/>
    <rect x="50" y="32" width="60" height="12" rx="3" fill="#22c55e"/>

    <circle cx="32" cy="78" r="8" fill="#6b7280"/>
    <rect x="50" y="72" width="70" height="12" rx="3" fill="#6b7280"/>

    <circle cx="32" cy="118" r="8" fill="#6b7280"/>
    <rect x="50" y="112" width="80" height="12" rx="3" fill="#6b7280"/>

    <circle cx="32" cy="158" r="8" fill="#6b7280"/>
    <rect x="50" y="152" width="65" height="12" rx="3" fill="#6b7280"/>

    <!-- Sidebar Divider -->
    <line x1="20" y1="190" x2="180" y2="190" stroke="#2d313d" stroke-width="1"/>

    <!-- Views Section -->
    <rect x="20" y="210" width="60" height="10" rx="2" fill="#6b7280"/>

    <rect x="20" y="235" width="8" height="8" rx="2" fill="#3b82f6"/>
    <rect x="36" y="233" width="80" height="12" rx="3" fill="#9ca3af"/>
    <rect x="150" y="233" width="24" height="16" rx="8" fill="#3b82f6"/>
    <text x="162" y="245" font-family="Arial, sans-serif" font-size="10" fill="white" text-anchor="middle">12</text>

    <rect x="20" y="265" width="8" height="8" rx="2" fill="#f59e0b"/>
    <rect x="36" y="263" width="70" height="12" rx="3" fill="#9ca3af"/>
    <rect x="150" y="263" width="24" height="16" rx="8" fill="#f59e0b"/>
    <text x="162" y="275" font-family="Arial, sans-serif" font-size="10" fill="white" text-anchor="middle">8</text>

    <rect x="20" y="295" width="8" height="8" rx="2" fill="#22c55e"/>
    <rect x="36" y="293" width="90" height="12" rx="3" fill="#9ca3af"/>
    <rect x="150" y="293" width="24" height="16" rx="8" fill="#22c55e"/>
    <text x="162" y="305" font-family="Arial, sans-serif" font-size="10" fill="white" text-anchor="middle">24</text>
  </g>

  <!-- Main Content Panel -->
  <g transform="translate(280, 120)" filter="url(#shadow)">
    <rect x="0" y="0" width="860" height="450" rx="12" fill="#1a1d26"/>

    <!-- Header Bar -->
    <rect x="0" y="0" width="860" height="50" rx="12" fill="#252832"/>
    <rect x="0" y="38" width="860" height="12" fill="#252832"/>

    <text x="24" y="32" font-family="Arial, sans-serif" font-size="16" font-weight="bold" fill="#f3f4f6">All Tickets</text>

    <!-- Search Bar -->
    <rect x="140" y="12" width="300" height="26" rx="6" fill="#1a1d26" stroke="#2d313d" stroke-width="1"/>
    <text x="156" y="30" font-family="Arial, sans-serif" font-size="12" fill="#6b7280">Search tickets...</text>

    <!-- Action Buttons -->
    <rect x="680" y="12" width="80" height="26" rx="6" fill="url(#greenGradient)"/>
    <text x="720" y="30" font-family="Arial, sans-serif" font-size="11" font-weight="bold" fill="white" text-anchor="middle">+ New</text>

    <rect x="770" y="12" width="70" height="26" rx="6" fill="#2d313d"/>
    <text x="805" y="30" font-family="Arial, sans-serif" font-size="11" fill="#9ca3af" text-anchor="middle">Filter</text>

    <!-- Table Header -->
    <rect x="20" y="65" width="820" height="30" rx="4" fill="#252832"/>
    <text x="40" y="85" font-family="Arial, sans-serif" font-size="11" font-weight="bold" fill="#9ca3af">SUBJECT</text>
    <text x="420" y="85" font-family="Arial, sans-serif" font-size="11" font-weight="bold" fill="#9ca3af">REQUESTER</text>
    <text x="560" y="85" font-family="Arial, sans-serif" font-size="11" font-weight="bold" fill="#9ca3af">STATUS</text>
    <text x="680" y="85" font-family="Arial, sans-serif" font-size="11" font-weight="bold" fill="#9ca3af">PRIORITY</text>
    <text x="780" y="85" font-family="Arial, sans-serif" font-size="11" font-weight="bold" fill="#9ca3af">UPDATED</text>

    <!-- Ticket Row 1 -->
    <rect x="20" y="105" width="820" height="55" rx="0" fill="#1a1d26"/>
    <line x1="20" y1="160" x2="840" y2="160" stroke="#2d313d" stroke-width="1"/>
    <circle cx="50" cy="132" r="16" fill="#3b82f6"/>
    <text x="50" y="137" font-family="Arial, sans-serif" font-size="12" font-weight="bold" fill="white" text-anchor="middle">JD</text>
    <text x="80" y="127" font-family="Arial, sans-serif" font-size="13" font-weight="600" fill="#f3f4f6">Unable to login to admin portal</text>
    <text x="80" y="145" font-family="Arial, sans-serif" font-size="11" fill="#6b7280">#1247 - Authentication issue affecting multiple users</text>
    <text x="420" y="135" font-family="Arial, sans-serif" font-size="12" fill="#9ca3af">John Doe</text>
    <rect x="560" y="122" width="55" height="22" rx="11" fill="#f59e0b" opacity="0.15"/>
    <text x="587" y="137" font-family="Arial, sans-serif" font-size="11" font-weight="600" fill="#f59e0b" text-anchor="middle">Open</text>
    <rect x="680" y="122" width="55" height="22" rx="11" fill="#ef4444" opacity="0.15"/>
    <text x="707" y="137" font-family="Arial, sans-serif" font-size="11" font-weight="600" fill="#ef4444" text-anchor="middle">Urgent</text>
    <text x="780" y="135" font-family="Arial, sans-serif" font-size="11" fill="#6b7280">2 min ago</text>

    <!-- Ticket Row 2 -->
    <rect x="20" y="160" width="820" height="55" rx="0" fill="#1a1d26"/>
    <line x1="20" y1="215" x2="840" y2="215" stroke="#2d313d" stroke-width="1"/>
    <circle cx="50" cy="187" r="16" fill="#8b5cf6"/>
    <text x="50" y="192" font-family="Arial, sans-serif" font-size="12" font-weight="bold" fill="white" text-anchor="middle">SM</text>
    <text x="80" y="182" font-family="Arial, sans-serif" font-size="13" font-weight="600" fill="#f3f4f6">Feature request: Dark mode toggle</text>
    <text x="80" y="200" font-family="Arial, sans-serif" font-size="11" fill="#6b7280">#1246 - Users requesting theme customization</text>
    <text x="420" y="190" font-family="Arial, sans-serif" font-size="12" fill="#9ca3af">Sarah Miller</text>
    <rect x="560" y="177" width="75" height="22" rx="11" fill="#8b5cf6" opacity="0.15"/>
    <text x="597" y="192" font-family="Arial, sans-serif" font-size="11" font-weight="600" fill="#8b5cf6" text-anchor="middle">In Progress</text>
    <rect x="680" y="177" width="55" height="22" rx="11" fill="#3b82f6" opacity="0.15"/>
    <text x="707" y="192" font-family="Arial, sans-serif" font-size="11" font-weight="600" fill="#3b82f6" text-anchor="middle">Normal</text>
    <text x="780" y="190" font-family="Arial, sans-serif" font-size="11" fill="#6b7280">1 hour ago</text>

    <!-- Ticket Row 3 -->
    <rect x="20" y="215" width="820" height="55" rx="0" fill="#1a1d26"/>
    <line x1="20" y1="270" x2="840" y2="270" stroke="#2d313d" stroke-width="1"/>
    <circle cx="50" cy="242" r="16" fill="#22c55e"/>
    <text x="50" y="247" font-family="Arial, sans-serif" font-size="12" font-weight="bold" fill="white" text-anchor="middle">MJ</text>
    <text x="80" y="237" font-family="Arial, sans-serif" font-size="13" font-weight="600" fill="#f3f4f6">API rate limiting not working correctly</text>
    <text x="80" y="255" font-family="Arial, sans-serif" font-size="11" fill="#6b7280">#1245 - Rate limits exceeded without warning</text>
    <text x="420" y="245" font-family="Arial, sans-serif" font-size="12" fill="#9ca3af">Mike Johnson</text>
    <rect x="560" y="232" width="60" height="22" rx="11" fill="#ec4899" opacity="0.15"/>
    <text x="590" y="247" font-family="Arial, sans-serif" font-size="11" font-weight="600" fill="#ec4899" text-anchor="middle">Pending</text>
    <rect x="680" y="232" width="45" height="22" rx="11" fill="#f97316" opacity="0.15"/>
    <text x="702" y="247" font-family="Arial, sans-serif" font-size="11" font-weight="600" fill="#f97316" text-anchor="middle">High</text>
    <text x="780" y="245" font-family="Arial, sans-serif" font-size="11" fill="#6b7280">3 hours ago</text>

    <!-- Ticket Row 4 -->
    <rect x="20" y="270" width="820" height="55" rx="0" fill="#1a1d26"/>
    <line x1="20" y1="325" x2="840" y2="325" stroke="#2d313d" stroke-width="1"/>
    <circle cx="50" cy="297" r="16" fill="#f59e0b"/>
    <text x="50" y="302" font-family="Arial, sans-serif" font-size="12" font-weight="bold" fill="white" text-anchor="middle">EW</text>
    <text x="80" y="292" font-family="Arial, sans-serif" font-size="13" font-weight="600" fill="#f3f4f6">Export to CSV not including all columns</text>
    <text x="80" y="310" font-family="Arial, sans-serif" font-size="11" fill="#6b7280">#1244 - Missing date and assignee columns in export</text>
    <text x="420" y="300" font-family="Arial, sans-serif" font-size="12" fill="#9ca3af">Emma Wilson</text>
    <rect x="560" y="287" width="65" height="22" rx="11" fill="#22c55e" opacity="0.15"/>
    <text x="592" y="302" font-family="Arial, sans-serif" font-size="11" font-weight="600" fill="#22c55e" text-anchor="middle">Resolved</text>
    <rect x="680" y="287" width="55" height="22" rx="11" fill="#3b82f6" opacity="0.15"/>
    <text x="707" y="302" font-family="Arial, sans-serif" font-size="11" font-weight="600" fill="#3b82f6" text-anchor="middle">Normal</text>
    <text x="780" y="300" font-family="Arial, sans-serif" font-size="11" fill="#6b7280">Yesterday</text>

    <!-- Ticket Row 5 (partial) -->
    <rect x="20" y="325" width="820" height="55" rx="0" fill="#1a1d26"/>
    <circle cx="50" cy="352" r="16" fill="#ec4899"/>
    <text x="50" y="357" font-family="Arial, sans-serif" font-size="12" font-weight="bold" fill="white" text-anchor="middle">RB</text>
    <text x="80" y="347" font-family="Arial, sans-serif" font-size="13" font-weight="600" fill="#f3f4f6">Integration with Slack not syncing</text>
    <text x="80" y="365" font-family="Arial, sans-serif" font-size="11" fill="#6b7280">#1243 - Notifications not appearing in channel</text>
    <text x="420" y="355" font-family="Arial, sans-serif" font-size="12" fill="#9ca3af">Robert Brown</text>
    <rect x="560" y="342" width="45" height="22" rx="11" fill="#3b82f6" opacity="0.15"/>
    <text x="582" y="357" font-family="Arial, sans-serif" font-size="11" font-weight="600" fill="#3b82f6" text-anchor="middle">New</text>
    <rect x="680" y="342" width="55" height="22" rx="11" fill="#3b82f6" opacity="0.15"/>
    <text x="707" y="357" font-family="Arial, sans-serif" font-size="11" font-weight="600" fill="#3b82f6" text-anchor="middle">Normal</text>
    <text x="780" y="355" font-family="Arial, sans-serif" font-size="11" fill="#6b7280">2 days ago</text>

    <!-- Fade out effect at bottom -->
    <defs>
      <linearGradient id="fadeOut" x1="0%" y1="0%" x2="0%" y2="100%">
        <stop offset="0%" style="stop-color:#1a1d26;stop-opacity:0" />
        <stop offset="100%" style="stop-color:#1a1d26;stop-opacity:1" />
      </linearGradient>
    </defs>
    <rect x="20" y="380" width="820" height="60" fill="url(#fadeOut)"/>
  </g>

  <!-- Tagline -->
  <text x="600" y="600" font-family="Arial, sans-serif" font-size="20" fill="#9ca3af" text-anchor="middle">Azure DevOps Powered Support Ticketing</text>

  <!-- KnowAll branding -->
  <text x="1120" y="600" font-family="Arial, sans-serif" font-size="14" fill="#6b7280" text-anchor="end">by KnowAll</text>
</svg>
